Coordinates
version=1
nRows=7
nColumns=42
inDegrees=yes

Units are S.I. units (second, meters, Newtons, ...)
If the header above contains a line with 'inDegrees', this indicates whether rotational values are in degrees (yes) or radians (no).

endheader
time	pelvis_tilt	pelvis_list	pelvis_rotation	pelvis_tx	pelvis_ty	pelvis_tz	hip_flexion_r	hip_adduction_r	hip_rotation_r	knee_angle_r	knee_adduction_r	knee_angle_r_beta	ankle_angle_r	subtalar_angle_r	mtp_angle_r	hip_flexion_l	hip_adduction_l	hip_rotation_l	knee_angle_l	knee_adduction_l	knee_angle_l_beta	ankle_angle_l	subtalar_angle_l	mtp_angle_l	lumbar_extension	lumbar_bending	lumbar_rotation	arm_flex_r	arm_add_r	arm_rot_r	elbow_flex_r	pro_sup_r	wrist_flex_r	wrist_dev_r	arm_flex_l	arm_add_l	arm_rot_l	elbow_flex_l	pro_sup_l	wrist_flex_l	wrist_dev_l
      3.50000000	      2.62764010	     -3.22069650	     -1.55120617	     -0.06596316	      0.92394453	     -0.07748554	      3.02974686	     -3.94488697	    -20.31254850	     30.81228617	      4.93220707	      0.53777584	     22.35641440	     10.30882500	     -7.55981114	     24.00245200	     -8.55592845	    -18.26808824	     37.95069514	     -2.21491541	      0.66236458	     10.43446736	     -2.00047874	     -7.55981114	    -18.26323111	      4.49523595	     -1.89568121	      9.62571955	    -10.95856149	     -0.22616254	     37.01327022	     90.00000001	      0.00000000	      0.00000000	    -13.01595114	    -11.06299893	     -0.98303903	     56.50193607	     90.00000001	      0.00000000	      0.00000000
      3.51000000	      2.62303148	     -3.20428549	     -1.83882708	     -0.06239796	      0.92417467	     -0.07830623	      2.77165805	     -3.96464882	    -20.04906569	     30.63687019	      4.81669642	      0.53471426	     22.33990158	     10.28171772	     -7.55953229	     23.79292117	     -8.33121222	    -18.01098982	     38.14997598	     -2.38594513	      0.66584269	     10.56517660	     -2.23009158	     -7.55953229	    -18.09138128	      4.21452923	     -1.75878334	      9.50593088	    -10.84839454	     -0.21781824	     37.01133055	     90.00000001	      0.00000000	      0.00000000	    -13.10258222	    -11.08082704	     -1.01667546	     56.45909108	     90.00000001	      0.00000000	      0.00000000
      3.52000000	      2.58633969	     -3.25354341	     -2.09625851	     -0.05879438	      0.92437800	     -0.07915961	      2.55653423	     -3.96918743	    -19.94780645	     30.55837302	      4.77174086	      0.53334422	     22.32947649	     10.27882829	     -7.55944951	     23.57947242	     -8.25209135	    -17.85100169	     38.28507303	     -2.48924276	      0.66820058	     10.60945269	     -2.32050998	     -7.55944951	    -17.86867904	      4.00663347	     -1.67755352	      9.40629178	    -10.72398856	     -0.19994618	     37.02570061	     90.00000001	      0.00000000	      0.00000000	    -13.25325420	    -11.07203360	     -1.02801048	     56.38942051	     90.00000001	      0.00000000	      0.00000000
      3.53000000	      2.92629005	     -3.09261572	     -2.52755179	     -0.05511490	      0.92563699	     -0.07982707	      1.64652591	     -4.14990923	    -19.06749359	     29.74822161	      5.05204438	      0.51920441	     22.19789088	     10.11282556	     -7.55803709	     22.65999072	     -8.03228289	    -17.60714294	     38.13330501	     -2.14189748	      0.66555173	     10.69043533	     -3.85658448	     -7.55803709	    -18.10949277	      3.50344935	     -1.42007555	      9.24261802	    -10.59395487	     -0.23439794	     37.30918703	     90.00000001	      0.00000000	      0.00000000	    -13.22562315	    -11.04879774	     -1.21816300	     56.27463711	     90.00000001	      0.00000000	      0.00000000
      3.54000000	      2.84782726	     -3.01981835	     -2.78013298	     -0.05166032	      0.92590913	     -0.08082543	      1.44283747	     -4.25415610	    -18.97809519	     29.51946176	      4.92830617	      0.51521180	     22.13726484	     10.10421173	     -7.55782951	     22.45821970	     -7.90415889	    -17.57424896	     38.27247815	     -2.08989733	      0.66798076	     10.77983106	     -4.03471397	     -7.55782951	    -17.84315420	      3.18284585	     -1.36711556	      9.14685393	    -10.43722308	     -0.19682261	     37.37187531	     90.00000001	      0.00000000	      0.00000000	    -13.32730828	    -11.06187735	     -1.25953747	     56.19553498	     90.00000001	      0.00000000	      0.00000000
      3.55000000	      3.00520927	     -2.92609384	     -3.13164584	     -0.04814137	      0.92683864	     -0.08182048	      0.82608639	     -4.45440684	    -18.56410605	     28.97838421	      5.08167003	      0.50576822	     21.96213449	     10.24025538	     -7.55678548	     21.78193833	     -7.78893896	    -17.72864063	     38.05134205	     -1.93835451	      0.66412120	     10.90715179	     -4.74521323	     -7.55678548	    -17.86899710	      2.82548730	     -1.18226698	      8.99242981	    -10.34511968	     -0.11973074	     37.67921785	     90.00000001	      0.00000000	      0.00000000	    -13.32490557	    -10.98744656	     -1.47324877	     56.05032555	     90.00000001	      0.00000000	      0.00000000
      3.56000000	      2.87545911	     -2.93195206	     -3.33501326	     -0.04481970	      0.92711327	     -0.08297933	      0.68085929	     -4.54116762	    -18.60763286	     28.82081636	      5.03060627	      0.50301814	     21.93199527	     10.23892679	     -7.55669023	     21.61036228	     -7.78476035	    -17.77302592	     38.08753255	     -1.88102569	      0.66475285	     10.94412617	     -4.78761307	     -7.55669023	    -17.56047712	      2.63546193	     -1.16491057	      8.91923099	    -10.18822879	     -0.07818028	     37.74342643	     90.00000001	      0.00000000	      0.00000000	    -13.45913080	    -10.96858420	     -1.48861713	     55.97494793	     90.00000001	      0.00000000	      0.00000000
